<svg width="328" height="120" viewBox="0 0 328 120" fill="none" xmlns="http://www.w3.org/2000/svg">
<rect width="328" height="120" fill="white"/>
<circle cx="59.5" cy="60.5" r="38" fill="#001484" stroke="#001484" stroke-width="3"/>
<mask id="mask0_21_2" style="mask-type:alpha" maskUnits="userSpaceOnUse" x="16" y="16" width="88" height="88">
<circle cx="60" cy="60" r="44" fill="#491D8B"/>
</mask>
<g mask="url(#mask0_21_2)">
<path d="M56.2417 53L18.9988 90.2429L28.9984 100.243L66.2412 63L56.2417 53Z" fill="#B2A05C"/>
<path d="M86.5 18L50 54.5L60.5 65L97 28.5L86.5 18Z" fill="#B2A05C"/>
</g>
<path d="M52 63L89.5 100.5L99 91L52 44L26 70L35.5 79.5L52 63Z" fill="#FFE78D"/>
<path d="M160.226 61.1282C160.226 67.077 158.392 72.1983 154.724 76.4921L159.354 81.2556L154.724 85.8849L149.558 80.6518C146.114 82.6645 142.245 83.6709 137.952 83.6709C131.019 83.6709 125.629 81.4569 121.783 77.0289C117.936 72.6009 116.013 67.3454 116.013 61.2624C116.013 54.9111 118.025 49.5662 122.051 45.2276C126.076 40.889 131.444 38.7198 138.153 38.7198C144.951 38.7198 150.319 40.9338 154.255 45.3618C158.236 49.7451 160.226 55.0006 160.226 61.1282ZM152.175 61.3295C152.175 56.4542 150.923 52.5629 148.418 49.6556C145.958 46.7483 142.514 45.2947 138.086 45.2947C133.434 45.2947 129.923 46.8154 127.552 49.8569C125.227 52.8537 124.064 56.5884 124.064 61.0612C124.064 65.3997 125.204 69.1568 127.485 72.3325C129.811 75.5081 133.412 77.096 138.287 77.096C140.702 77.096 142.827 76.604 144.661 75.62L137.549 68.307L142.178 63.6777L149.558 71.1919C151.303 68.5977 152.175 65.3103 152.175 61.3295ZM213.202 58.3775H210.183L201.729 83H196.362L188.043 63.141H187.707L179.857 83H174.758L166.104 58.3775H163.152V52.876H178.449V58.3775H173.752L178.381 72.8692H178.784L186.499 52.876H190.927L199.582 72.6679H199.985L203.608 58.3775H199.113V52.876H213.202V58.3775ZM218.617 55.09C220.854 54.0166 222.844 53.2786 224.588 52.876C226.333 52.4735 228.346 52.2722 230.627 52.2722C233.981 52.2722 236.732 53.122 238.879 54.8217C241.071 56.5213 242.166 59.0708 242.166 62.4701V76.0225C242.166 77.8116 242.904 78.7062 244.38 78.7062C244.783 78.7062 245.297 78.6167 245.923 78.4378L245.991 82.3962C244.515 83.246 242.904 83.6709 241.16 83.6709C237.358 83.6709 235.301 81.6805 234.988 77.6998V77.5656C234.093 79.1311 232.818 80.54 231.163 81.7924C229.553 83.0447 227.54 83.6709 225.125 83.6709C223.023 83.6709 220.943 83.0447 218.886 81.7924C216.873 80.4953 215.867 78.2589 215.867 75.0832C215.867 71.3708 217.343 68.9332 220.295 67.7703C223.247 66.5626 226.445 65.9588 229.889 65.9588C230.738 65.9588 231.611 65.9812 232.505 66.0259C233.4 66.0706 234.227 66.1377 234.988 66.2272V64.5499C234.988 62.7608 234.674 61.1506 234.048 59.7193C233.422 58.288 231.857 57.5724 229.352 57.5724C228.413 57.5724 227.518 57.6395 226.668 57.7737C225.863 57.9079 225.08 58.1762 224.32 58.5788L223.112 63.2081L217.343 62.6043L218.617 55.09ZM234.988 71.0578V69.9843C234.227 69.8948 233.444 69.8054 232.639 69.7159C231.834 69.6265 231.007 69.5817 230.157 69.5817C228.368 69.5817 226.758 69.8948 225.326 70.521C223.94 71.1472 223.247 72.3996 223.247 74.2781C223.247 77.0065 224.7 78.3707 227.608 78.3707C229.307 78.3707 230.917 77.7669 232.438 76.5592C233.959 75.3069 234.809 73.473 234.988 71.0578ZM267.397 52.4064C269.41 52.4064 271.289 52.9655 273.033 54.0837L274.308 63.4764L268.739 64.1473L267.599 58.9813C266.704 58.534 265.944 58.3104 265.318 58.3104C264.065 58.3104 262.969 58.8248 262.03 59.8535C261.136 60.8822 260.688 62.3135 260.688 64.1473V77.4985H266.659V83H249.014V77.4985H253.509V58.4446H248.813V52.876H260.152V58.5117C260.688 56.812 261.538 55.3808 262.701 54.2178C263.909 53.0102 265.474 52.4064 267.397 52.4064ZM311.059 83H296.031V77.4985H299.519L293.213 69.9843H288.382V77.4985H291.737V83H276.708V77.4985H281.204V42.3427H276.44V36.8412H288.382V64.8183H293.548L298.849 58.4446H294.89V52.876H309.583V58.4446H305.826L298.714 66.7639L307.839 77.4985H311.059V83Z" fill="black"/>
</svg>
